<?xml version="1.0" encoding="UTF-8" standalone="no"?>
<!DOCTYPE svg PUBLIC "-//W3C//DTD SVG 1.1//EN"
 "http://www.w3.org/Graphics/SVG/1.1/DTD/svg11.dtd">
<!-- Generated by graphviz version 7.0.2 (20221119.0110)
 -->
<!-- Pages: 1 -->
<svg width="2707pt" height="305pt"
 viewBox="0.00 0.00 2707.19 305.00" xmlns="http://www.w3.org/2000/svg" xmlns:xlink="http://www.w3.org/1999/xlink">
<g id="graph0" class="graph" transform="scale(1 1) rotate(0) translate(4 301)">
<polygon fill="white" stroke="none" points="-4,4 -4,-301 2703.19,-301 2703.19,4 -4,4"/>
<!-- /lib/terminfo/x/xterm&#45;256color -->
<g id="node1" class="node">
<title>/lib/terminfo/x/xterm&#45;256color</title>
<ellipse fill="none" stroke="black" cx="382.19" cy="-279" rx="120.48" ry="18"/>
<text text-anchor="middle" x="382.19" y="-275.3" font-family="Times,serif" font-size="14.00">/lib/terminfo/x/xterm&#45;256color</text>
</g>
<!-- vi -->
<g id="node16" class="node">
<title>vi</title>
<ellipse fill="none" stroke="black" cx="1105.19" cy="-192" rx="27" ry="18"/>
<text text-anchor="middle" x="1105.19" y="-188.3" font-family="Times,serif" font-size="14.00">vi</text>
</g>
<!-- /lib/terminfo/x/xterm&#45;256color&#45;&gt;vi -->
<g id="edge17" class="edge">
<title>/lib/terminfo/x/xterm&#45;256color&#45;&gt;vi</title>
<path fill="none" stroke="black" d="M419.95,-261.46C448.1,-249.93 487.81,-235.35 524.19,-228 628.48,-206.93 954.31,-196.84 1066.66,-193.92"/>
<polygon fill="black" stroke="black" points="1066.64,-197.43 1076.55,-193.67 1066.47,-190.43 1066.64,-197.43"/>
<text text-anchor="middle" x="598.69" y="-231.8" font-family="Times,serif" font-size="14.00">[1670454236&#45;1670454236]</text>
</g>
<!-- /dev/pts/1 -->
<g id="node2" class="node">
<title>/dev/pts/1</title>
<ellipse fill="none" stroke="black" cx="1535.19" cy="-105" rx="45.49" ry="18"/>
<text text-anchor="middle" x="1535.19" y="-101.3" font-family="Times,serif" font-size="14.00">/dev/pts/1</text>
</g>
<!-- bash -->
<g id="node15" class="node">
<title>bash</title>
<ellipse fill="none" stroke="black" cx="1535.19" cy="-18" rx="27" ry="18"/>
<text text-anchor="middle" x="1535.19" y="-14.3" font-family="Times,serif" font-size="14.00">bash</text>
</g>
<!-- /dev/pts/1&#45;&gt;bash -->
<g id="edge20" class="edge">
<title>/dev/pts/1&#45;&gt;bash</title>
<path fill="none" stroke="black" d="M1493.76,-97.2C1477.34,-92.25 1460.05,-83.72 1450.19,-69 1435.58,-47.18 1469,-33.55 1498.13,-26.14"/>
<polygon fill="black" stroke="black" points="1498.57,-29.63 1507.51,-23.94 1496.97,-22.82 1498.57,-29.63"/>
<text text-anchor="middle" x="1524.69" y="-57.8" font-family="Times,serif" font-size="14.00">[1670454218&#45;1670454252]</text>
</g>
<!-- /dev/pts/1&#45;&gt;vi -->
<g id="edge21" class="edge">
<title>/dev/pts/1&#45;&gt;vi</title>
<path fill="none" stroke="black" d="M1492.89,-112.06C1457.08,-117.75 1404.64,-127.44 1360.19,-141 1343.61,-146.06 1340.86,-151.27 1324.19,-156 1262.1,-173.63 1187.42,-183.18 1143.26,-187.67"/>
<polygon fill="black" stroke="black" points="1143.04,-184.17 1133.43,-188.63 1143.72,-191.14 1143.04,-184.17"/>
<text text-anchor="middle" x="1434.69" y="-144.8" font-family="Times,serif" font-size="14.00">[1670454238&#45;1670454250]</text>
</g>
<!-- /lib/aarch64&#45;linux&#45;gnu/libacl.so.1 -->
<g id="node3" class="node">
<title>/lib/aarch64&#45;linux&#45;gnu/libacl.so.1</title>
<ellipse fill="none" stroke="black" cx="649.19" cy="-279" rx="128.88" ry="18"/>
<text text-anchor="middle" x="649.19" y="-275.3" font-family="Times,serif" font-size="14.00">/lib/aarch64&#45;linux&#45;gnu/libacl.so.1</text>
</g>
<!-- /lib/aarch64&#45;linux&#45;gnu/libacl.so.1&#45;&gt;vi -->
<g id="edge14" class="edge">
<title>/lib/aarch64&#45;linux&#45;gnu/libacl.so.1&#45;&gt;vi</title>
<path fill="none" stroke="black" d="M660.77,-260.98C669.59,-249.53 682.8,-235.26 698.19,-228 762.81,-197.53 977.83,-193.34 1066.48,-192.94"/>
<polygon fill="black" stroke="black" points="1066.37,-196.44 1076.36,-192.91 1066.35,-189.44 1066.37,-196.44"/>
<text text-anchor="middle" x="772.69" y="-231.8" font-family="Times,serif" font-size="14.00">[1670454236&#45;1670454236]</text>
</g>
<!-- cat -->
<g id="node4" class="node">
<title>cat</title>
<ellipse fill="none" stroke="black" cx="410.19" cy="-18" rx="27" ry="18"/>
<text text-anchor="middle" x="410.19" y="-14.3" font-family="Times,serif" font-size="14.00">cat</text>
</g>
<!-- /home/ubuntu/testDir/testFile.txt -->
<g id="node5" class="node">
<title>/home/ubuntu/testDir/testFile.txt</title>
<ellipse fill="none" stroke="black" cx="675.19" cy="-105" rx="126.18" ry="18"/>
<text text-anchor="middle" x="675.19" y="-101.3" font-family="Times,serif" font-size="14.00">/home/ubuntu/testDir/testFile.txt</text>
</g>
<!-- /home/ubuntu/testDir/testFile.txt&#45;&gt;cat -->
<g id="edge2" class="edge">
<title>/home/ubuntu/testDir/testFile.txt&#45;&gt;cat</title>
<path fill="none" stroke="black" d="M625.34,-88.01C572.82,-71.17 491.45,-45.06 445.29,-30.26"/>
<polygon fill="black" stroke="black" points="446.39,-26.94 435.8,-27.21 444.25,-33.6 446.39,-26.94"/>
<text text-anchor="middle" x="632.69" y="-57.8" font-family="Times,serif" font-size="14.00">[1670454252&#45;1670454252]</text>
</g>
<!-- /home/ubuntu/testDir/testFile.txt&#45;&gt;vi -->
<g id="edge1" class="edge">
<title>/home/ubuntu/testDir/testFile.txt&#45;&gt;vi</title>
<path fill="none" stroke="black" d="M670.22,-123.47C668.32,-134.22 668.22,-147.52 676.19,-156 702.63,-184.12 965.81,-189.65 1066.39,-190.73"/>
<polygon fill="black" stroke="black" points="1066.27,-194.23 1076.31,-190.83 1066.34,-187.23 1066.27,-194.23"/>
<text text-anchor="middle" x="750.69" y="-144.8" font-family="Times,serif" font-size="14.00">[1670454236&#45;1670454250]</text>
</g>
<!-- /lib/aarch64&#45;linux&#45;gnu/libpcre2&#45;8.so.0 -->
<g id="node6" class="node">
<title>/lib/aarch64&#45;linux&#45;gnu/libpcre2&#45;8.so.0</title>
<ellipse fill="none" stroke="black" cx="1861.19" cy="-279" rx="145.67" ry="18"/>
<text text-anchor="middle" x="1861.19" y="-275.3" font-family="Times,serif" font-size="14.00">/lib/aarch64&#45;linux&#45;gnu/libpcre2&#45;8.so.0</text>
</g>
<!-- ls -->
<g id="node10" class="node">
<title>ls</title>
<ellipse fill="none" stroke="black" cx="2051.19" cy="-192" rx="27" ry="18"/>
<text text-anchor="middle" x="2051.19" y="-188.3" font-family="Times,serif" font-size="14.00">ls</text>
</g>
<!-- /lib/aarch64&#45;linux&#45;gnu/libpcre2&#45;8.so.0&#45;&gt;ls -->
<g id="edge12" class="edge">
<title>/lib/aarch64&#45;linux&#45;gnu/libpcre2&#45;8.so.0&#45;&gt;ls</title>
<path fill="none" stroke="black" d="M1958.97,-265.38C1989.17,-259.84 2017.56,-252.42 2029.19,-243 2036.08,-237.42 2040.87,-229.24 2044.18,-221.12"/>
<polygon fill="black" stroke="black" points="2047.46,-222.34 2047.34,-211.74 2040.83,-220.1 2047.46,-222.34"/>
<text text-anchor="middle" x="2114.69" y="-231.8" font-family="Times,serif" font-size="14.00">[1670454223&#45;1670454223]</text>
</g>
<!-- /lib/aarch64&#45;linux&#45;gnu/libpcre2&#45;8.so.0&#45;&gt;vi -->
<g id="edge11" class="edge">
<title>/lib/aarch64&#45;linux&#45;gnu/libpcre2&#45;8.so.0&#45;&gt;vi</title>
<path fill="none" stroke="black" d="M1781.53,-263.55C1757.61,-258.21 1731.53,-251.37 1708.19,-243 1694.16,-237.97 1692.59,-231.87 1678.19,-228 1576.96,-200.82 1255.26,-194.68 1143.72,-193.35"/>
<polygon fill="black" stroke="black" points="1143.93,-189.85 1133.9,-193.24 1143.86,-196.85 1143.93,-189.85"/>
<text text-anchor="middle" x="1782.69" y="-231.8" font-family="Times,serif" font-size="14.00">[1670454236&#45;1670454236]</text>
</g>
<!-- /etc/passwd -->
<g id="node7" class="node">
<title>/etc/passwd</title>
<ellipse fill="none" stroke="black" cx="848.19" cy="-279" rx="51.99" ry="18"/>
<text text-anchor="middle" x="848.19" y="-275.3" font-family="Times,serif" font-size="14.00">/etc/passwd</text>
</g>
<!-- /etc/passwd&#45;&gt;vi -->
<g id="edge9" class="edge">
<title>/etc/passwd&#45;&gt;vi</title>
<path fill="none" stroke="black" d="M848.09,-260.7C848.99,-249.73 852.1,-236.13 861.19,-228 890.8,-201.53 1005.76,-195.04 1066.72,-193.48"/>
<polygon fill="black" stroke="black" points="1066.72,-196.98 1076.64,-193.26 1066.57,-189.98 1066.72,-196.98"/>
<text text-anchor="middle" x="935.69" y="-231.8" font-family="Times,serif" font-size="14.00">[1670454236&#45;1670454236]</text>
</g>
<!-- /lib/aarch64&#45;linux&#45;gnu/libselinux.so.1 -->
<g id="node8" class="node">
<title>/lib/aarch64&#45;linux&#45;gnu/libselinux.so.1</title>
<ellipse fill="none" stroke="black" cx="2444.19" cy="-279" rx="143.77" ry="18"/>
<text text-anchor="middle" x="2444.19" y="-275.3" font-family="Times,serif" font-size="14.00">/lib/aarch64&#45;linux&#45;gnu/libselinux.so.1</text>
</g>
<!-- /lib/aarch64&#45;linux&#45;gnu/libselinux.so.1&#45;&gt;ls -->
<g id="edge23" class="edge">
<title>/lib/aarch64&#45;linux&#45;gnu/libselinux.so.1&#45;&gt;ls</title>
<path fill="none" stroke="black" d="M2519.26,-263.23C2543.12,-255.3 2559.93,-243.82 2545.19,-228 2514.37,-194.92 2200.71,-192.57 2089.79,-192.79"/>
<polygon fill="black" stroke="black" points="2090,-189.29 2080.01,-192.81 2090.02,-196.29 2090,-189.29"/>
<text text-anchor="middle" x="2624.69" y="-231.8" font-family="Times,serif" font-size="14.00">[1670454223&#45;1670454223]</text>
</g>
<!-- /lib/aarch64&#45;linux&#45;gnu/libselinux.so.1&#45;&gt;vi -->
<g id="edge22" class="edge">
<title>/lib/aarch64&#45;linux&#45;gnu/libselinux.so.1&#45;&gt;vi</title>
<path fill="none" stroke="black" d="M2417.84,-260.94C2397.1,-247.88 2369.68,-231.52 2357.19,-228 2297.46,-211.16 1348.32,-196.52 1143.82,-193.55"/>
<polygon fill="black" stroke="black" points="1144.06,-190.05 1134.01,-193.41 1143.96,-197.05 1144.06,-190.05"/>
<text text-anchor="middle" x="2461.69" y="-231.8" font-family="Times,serif" font-size="14.00">[1670454236&#45;1670454236]</text>
</g>
<!-- /home/ubuntu/testDir/.testFile.txt.swp -->
<g id="node9" class="node">
<title>/home/ubuntu/testDir/.testFile.txt.swp</title>
<ellipse fill="none" stroke="black" cx="1105.19" cy="-105" rx="145.67" ry="18"/>
<text text-anchor="middle" x="1105.19" y="-101.3" font-family="Times,serif" font-size="14.00">/home/ubuntu/testDir/.testFile.txt.swp</text>
</g>
<!-- /home/ubuntu/testDir/.testFile.txt.swp&#45;&gt;vi -->
<g id="edge10" class="edge">
<title>/home/ubuntu/testDir/.testFile.txt.swp&#45;&gt;vi</title>
<path fill="none" stroke="black" d="M1038.87,-121.42C1029.93,-126.26 1021.89,-132.63 1016.19,-141 1000.64,-163.83 1037.01,-177.39 1067.85,-184.51"/>
<polygon fill="black" stroke="black" points="1066.86,-187.88 1077.37,-186.53 1068.32,-181.03 1066.86,-187.88"/>
<text text-anchor="middle" x="1090.69" y="-144.8" font-family="Times,serif" font-size="14.00">[1670454236&#45;1670454236]</text>
</g>
<!-- ls&#45;&gt;/dev/pts/1 -->
<g id="edge25" class="edge">
<title>ls&#45;&gt;/dev/pts/1</title>
<path fill="none" stroke="black" d="M2024.89,-186.67C1943.85,-173.32 1696.83,-132.63 1587.82,-114.67"/>
<polygon fill="black" stroke="black" points="1588.4,-111.22 1577.97,-113.05 1587.26,-118.13 1588.4,-111.22"/>
<text text-anchor="middle" x="1897.69" y="-144.8" font-family="Times,serif" font-size="14.00">[1670454223&#45;1670454223]</text>
</g>
<!-- /lib/aarch64&#45;linux&#45;gnu/libc.so.6 -->
<g id="node11" class="node">
<title>/lib/aarch64&#45;linux&#45;gnu/libc.so.6</title>
<ellipse fill="none" stroke="black" cx="122.19" cy="-279" rx="122.38" ry="18"/>
<text text-anchor="middle" x="122.19" y="-275.3" font-family="Times,serif" font-size="14.00">/lib/aarch64&#45;linux&#45;gnu/libc.so.6</text>
</g>
<!-- /lib/aarch64&#45;linux&#45;gnu/libc.so.6&#45;&gt;cat -->
<g id="edge3" class="edge">
<title>/lib/aarch64&#45;linux&#45;gnu/libc.so.6&#45;&gt;cat</title>
<path fill="none" stroke="black" d="M141.09,-261.01C191.69,-215.5 330.22,-90.92 386.22,-40.55"/>
<polygon fill="black" stroke="black" points="388.25,-43.43 393.35,-34.14 383.57,-38.23 388.25,-43.43"/>
<text text-anchor="middle" x="347.69" y="-144.8" font-family="Times,serif" font-size="14.00">[1670454252&#45;1670454252]</text>
</g>
<!-- /lib/aarch64&#45;linux&#45;gnu/libc.so.6&#45;&gt;ls -->
<g id="edge5" class="edge">
<title>/lib/aarch64&#45;linux&#45;gnu/libc.so.6&#45;&gt;ls</title>
<path fill="none" stroke="black" d="M206.61,-265.63C222.07,-263.76 238.09,-262.1 253.19,-261 313.48,-256.6 1284.25,-263.3 1341.19,-243 1351.32,-239.39 1350.12,-231.78 1360.19,-228 1421.24,-205.06 1876.09,-195.85 2012.58,-193.59"/>
<polygon fill="black" stroke="black" points="2012.59,-197.09 2022.53,-193.43 2012.48,-190.09 2012.59,-197.09"/>
<text text-anchor="middle" x="1434.69" y="-231.8" font-family="Times,serif" font-size="14.00">[1670454223&#45;1670454223]</text>
</g>
<!-- /lib/aarch64&#45;linux&#45;gnu/libc.so.6&#45;&gt;vi -->
<g id="edge4" class="edge">
<title>/lib/aarch64&#45;linux&#45;gnu/libc.so.6&#45;&gt;vi</title>
<path fill="none" stroke="black" d="M172.63,-262.16C212.09,-250.52 268.57,-235.47 319.19,-228 465.94,-206.34 929.45,-196.24 1066.6,-193.68"/>
<polygon fill="black" stroke="black" points="1066.66,-197.18 1076.59,-193.49 1066.53,-190.18 1066.66,-197.18"/>
<text text-anchor="middle" x="393.69" y="-231.8" font-family="Times,serif" font-size="14.00">[1670454236&#45;1670454236]</text>
</g>
<!-- /usr/share/vim/vimrc.tiny -->
<g id="node12" class="node">
<title>/usr/share/vim/vimrc.tiny</title>
<ellipse fill="none" stroke="black" cx="1019.19" cy="-279" rx="100.98" ry="18"/>
<text text-anchor="middle" x="1019.19" y="-275.3" font-family="Times,serif" font-size="14.00">/usr/share/vim/vimrc.tiny</text>
</g>
<!-- /usr/share/vim/vimrc.tiny&#45;&gt;vi -->
<g id="edge19" class="edge">
<title>/usr/share/vim/vimrc.tiny&#45;&gt;vi</title>
<path fill="none" stroke="black" d="M1015.11,-260.83C1013.65,-250.46 1013.72,-237.46 1020.19,-228 1030.91,-212.33 1050.02,-203.67 1067.4,-198.88"/>
<polygon fill="black" stroke="black" points="1068.08,-202.32 1077,-196.61 1066.47,-195.51 1068.08,-202.32"/>
<text text-anchor="middle" x="1094.69" y="-231.8" font-family="Times,serif" font-size="14.00">[1670454236&#45;1670454236]</text>
</g>
<!-- /lib/aarch64&#45;linux&#45;gnu/libtinfo.so.6 -->
<g id="node13" class="node">
<title>/lib/aarch64&#45;linux&#45;gnu/libtinfo.so.6</title>
<ellipse fill="none" stroke="black" cx="1273.19" cy="-279" rx="135.38" ry="18"/>
<text text-anchor="middle" x="1273.19" y="-275.3" font-family="Times,serif" font-size="14.00">/lib/aarch64&#45;linux&#45;gnu/libtinfo.so.6</text>
</g>
<!-- /lib/aarch64&#45;linux&#45;gnu/libtinfo.so.6&#45;&gt;vi -->
<g id="edge13" class="edge">
<title>/lib/aarch64&#45;linux&#45;gnu/libtinfo.so.6&#45;&gt;vi</title>
<path fill="none" stroke="black" d="M1231.34,-261.52C1218.56,-256.06 1204.61,-249.67 1192.19,-243 1181.44,-237.23 1179.66,-234.27 1169.19,-228 1158.59,-221.66 1146.79,-215.07 1136.22,-209.35"/>
<polygon fill="black" stroke="black" points="1137.97,-206.31 1127.51,-204.66 1134.66,-212.48 1137.97,-206.31"/>
<text text-anchor="middle" x="1266.69" y="-231.8" font-family="Times,serif" font-size="14.00">[1670454236&#45;1670454236]</text>
</g>
<!-- /etc/nsswitch.conf -->
<g id="node14" class="node">
<title>/etc/nsswitch.conf</title>
<ellipse fill="none" stroke="black" cx="1535.19" cy="-279" rx="74.99" ry="18"/>
<text text-anchor="middle" x="1535.19" y="-275.3" font-family="Times,serif" font-size="14.00">/etc/nsswitch.conf</text>
</g>
<!-- /etc/nsswitch.conf&#45;&gt;vi -->
<g id="edge18" class="edge">
<title>/etc/nsswitch.conf&#45;&gt;vi</title>
<path fill="none" stroke="black" d="M1532.26,-260.78C1529.4,-249.55 1523.83,-235.61 1513.19,-228 1483.56,-206.8 1239.79,-197.11 1143.81,-194.09"/>
<polygon fill="black" stroke="black" points="1143.95,-190.59 1133.85,-193.79 1143.74,-197.59 1143.95,-190.59"/>
<text text-anchor="middle" x="1599.69" y="-231.8" font-family="Times,serif" font-size="14.00">[1670454236&#45;1670454236]</text>
</g>
<!-- bash&#45;&gt;/dev/pts/1 -->
<g id="edge24" class="edge">
<title>bash&#45;&gt;/dev/pts/1</title>
<path fill="none" stroke="black" d="M1559.45,-26.33C1582.12,-34.55 1610.84,-49.35 1599.19,-69 1594.6,-76.74 1587.64,-82.87 1579.96,-87.7"/>
<polygon fill="black" stroke="black" points="1578.42,-84.56 1571.32,-92.42 1581.77,-90.7 1578.42,-84.56"/>
<text text-anchor="middle" x="1675.69" y="-57.8" font-family="Times,serif" font-size="14.00">[1670454218&#45;1670454252]</text>
</g>
<!-- vi&#45;&gt;/dev/pts/1 -->
<g id="edge8" class="edge">
<title>vi&#45;&gt;/dev/pts/1</title>
<path fill="none" stroke="black" d="M1132.34,-190.26C1218.55,-187.7 1482.29,-178.1 1513.19,-156 1520.59,-150.71 1525.53,-142.36 1528.82,-133.98"/>
<polygon fill="black" stroke="black" points="1532.09,-135.26 1531.8,-124.66 1525.42,-133.13 1532.09,-135.26"/>
<text text-anchor="middle" x="1599.69" y="-144.8" font-family="Times,serif" font-size="14.00">[1670454236&#45;1670454250]</text>
</g>
<!-- vi&#45;&gt;/home/ubuntu/testDir/testFile.txt -->
<g id="edge7" class="edge">
<title>vi&#45;&gt;/home/ubuntu/testDir/testFile.txt</title>
<path fill="none" stroke="black" d="M1078.11,-189.57C1032.26,-186.63 936.75,-178.17 859.19,-156 843.31,-151.46 840.85,-146.23 825.19,-141 803.93,-133.9 780.5,-127.69 758.61,-122.56"/>
<polygon fill="black" stroke="black" points="759.67,-119.21 749.14,-120.39 758.11,-126.04 759.67,-119.21"/>
<text text-anchor="middle" x="933.69" y="-144.8" font-family="Times,serif" font-size="14.00">[1670454250&#45;1670454250]</text>
</g>
<!-- vi&#45;&gt;/home/ubuntu/testDir/.testFile.txt.swp -->
<g id="edge6" class="edge">
<title>vi&#45;&gt;/home/ubuntu/testDir/.testFile.txt.swp</title>
<path fill="none" stroke="black" d="M1129.45,-183.67C1152.12,-175.45 1180.84,-160.65 1169.19,-141 1166.58,-136.59 1163.19,-132.7 1159.34,-129.28"/>
<polygon fill="black" stroke="black" points="1161.61,-126.6 1151.5,-123.41 1157.41,-132.21 1161.61,-126.6"/>
<text text-anchor="middle" x="1245.69" y="-144.8" font-family="Times,serif" font-size="14.00">[1670454236&#45;1670454250]</text>
</g>
<!-- /proc/filesystems -->
<g id="node17" class="node">
<title>/proc/filesystems</title>
<ellipse fill="none" stroke="black" cx="2173.19" cy="-279" rx="71.49" ry="18"/>
<text text-anchor="middle" x="2173.19" y="-275.3" font-family="Times,serif" font-size="14.00">/proc/filesystems</text>
</g>
<!-- /proc/filesystems&#45;&gt;ls -->
<g id="edge16" class="edge">
<title>/proc/filesystems&#45;&gt;ls</title>
<path fill="none" stroke="black" d="M2192.28,-261.41C2201.65,-251.26 2209.35,-238.29 2201.19,-228 2187.49,-210.74 2129.24,-201.19 2089.49,-196.59"/>
<polygon fill="black" stroke="black" points="2089.9,-193.11 2079.58,-195.5 2089.14,-200.07 2089.9,-193.11"/>
<text text-anchor="middle" x="2278.69" y="-231.8" font-family="Times,serif" font-size="14.00">[1670454223&#45;1670454223]</text>
</g>
<!-- /proc/filesystems&#45;&gt;vi -->
<g id="edge15" class="edge">
<title>/proc/filesystems&#45;&gt;vi</title>
<path fill="none" stroke="black" d="M2108.76,-270.85C2023.03,-261.27 1881.53,-245.21 1876.19,-243 1866.25,-238.88 1867.27,-231.76 1857.19,-228 1790.2,-202.98 1288.18,-195.16 1143.87,-193.42"/>
<polygon fill="black" stroke="black" points="1144.12,-189.92 1134.08,-193.3 1144.04,-196.92 1144.12,-189.92"/>
<text text-anchor="middle" x="1950.69" y="-231.8" font-family="Times,serif" font-size="14.00">[1670454236&#45;1670454236]</text>
</g>
</g>
</svg>
