<?xml version="1.0" encoding="UTF-8" standalone="no"?>
<!DOCTYPE svg PUBLIC "-//W3C//DTD SVG 1.1//EN"
 "http://www.w3.org/Graphics/SVG/1.1/DTD/svg11.dtd">
<!-- Generated by graphviz version 7.0.2 (20221119.0110)
 -->
<!-- Pages: 1 -->
<svg width="10956pt" height="131pt"
 viewBox="0.00 0.00 10955.59 131.00" xmlns="http://www.w3.org/2000/svg" xmlns:xlink="http://www.w3.org/1999/xlink">
<g id="graph0" class="graph" transform="scale(1 1) rotate(0) translate(4 127)">
<polygon fill="white" stroke="none" points="-4,4 -4,-127 10951.59,-127 10951.59,4 -4,4"/>
<!-- /sys/fs/cgroup/user.slice/user&#45;1000.slice/user@1000.service/background.slice/tracker&#45;extract&#45;3.service/cgroup.events -->
<g id="node1" class="node">
<title>/sys/fs/cgroup/user.slice/user&#45;1000.slice/user@1000.service/background.slice/tracker&#45;extract&#45;3.service/cgroup.events</title>
<ellipse fill="none" stroke="black" cx="423.76" cy="-105" rx="423.52" ry="18"/>
<text text-anchor="middle" x="423.76" y="-101.3" font-family="Times,serif" font-size="14.00">/sys/fs/cgroup/user.slice/user&#45;1000.slice/user@1000.service/background.slice/tracker&#45;extract&#45;3.service/cgroup.events</text>
</g>
<!-- systemd -->
<g id="node9" class="node">
<title>systemd</title>
<ellipse fill="none" stroke="black" cx="4646.76" cy="-18" rx="40.09" ry="18"/>
<text text-anchor="middle" x="4646.76" y="-14.3" font-family="Times,serif" font-size="14.00">systemd</text>
</g>
<!-- /sys/fs/cgroup/user.slice/user&#45;1000.slice/user@1000.service/background.slice/tracker&#45;extract&#45;3.service/cgroup.events&#45;&gt;systemd -->
<g id="edge6" class="edge">
<title>/sys/fs/cgroup/user.slice/user&#45;1000.slice/user@1000.service/background.slice/tracker&#45;extract&#45;3.service/cgroup.events&#45;&gt;systemd</title>
<path fill="none" stroke="black" d="M634.17,-88.98C808.41,-77.21 1062.54,-61.6 1284.76,-54 1969.35,-30.57 4224.53,-20.68 4595.04,-19.2"/>
<polygon fill="black" stroke="black" points="4594.94,-22.7 4604.92,-19.16 4594.91,-15.7 4594.94,-22.7"/>
<text text-anchor="middle" x="1359.26" y="-57.8" font-family="Times,serif" font-size="14.00">[1670019964&#45;1670019964]</text>
</g>
<!-- /tmp/systemd&#45;private&#45;0ce62831ed334b57820cd2c9f839ffb2&#45;fprintd.service&#45;ZJFHq7 -->
<g id="node2" class="node">
<title>/tmp/systemd&#45;private&#45;0ce62831ed334b57820cd2c9f839ffb2&#45;fprintd.service&#45;ZJFHq7</title>
<ellipse fill="none" stroke="black" cx="1173.76" cy="-105" rx="308.95" ry="18"/>
<text text-anchor="middle" x="1173.76" y="-101.3" font-family="Times,serif" font-size="14.00">/tmp/systemd&#45;private&#45;0ce62831ed334b57820cd2c9f839ffb2&#45;fprintd.service&#45;ZJFHq7</text>
</g>
<!-- /tmp/systemd&#45;private&#45;0ce62831ed334b57820cd2c9f839ffb2&#45;fprintd.service&#45;ZJFHq7&#45;&gt;systemd -->
<g id="edge22" class="edge">
<title>/tmp/systemd&#45;private&#45;0ce62831ed334b57820cd2c9f839ffb2&#45;fprintd.service&#45;ZJFHq7&#45;&gt;systemd</title>
<path fill="none" stroke="black" d="M1285.03,-87.8C1371.46,-76 1494.44,-60.92 1602.76,-54 2218.8,-14.67 4245.12,-17.97 4595.06,-18.85"/>
<polygon fill="black" stroke="black" points="4594.81,-22.35 4604.82,-18.88 4594.83,-15.35 4594.81,-22.35"/>
<text text-anchor="middle" x="1677.26" y="-57.8" font-family="Times,serif" font-size="14.00">[1670019958&#45;1670019958]</text>
</g>
<!-- /proc/424/cgroup -->
<g id="node3" class="node">
<title>/proc/424/cgroup</title>
<ellipse fill="none" stroke="black" cx="1571.76" cy="-105" rx="71.49" ry="18"/>
<text text-anchor="middle" x="1571.76" y="-101.3" font-family="Times,serif" font-size="14.00">/proc/424/cgroup</text>
</g>
<!-- /proc/424/cgroup&#45;&gt;systemd -->
<g id="edge7" class="edge">
<title>/proc/424/cgroup&#45;&gt;systemd</title>
<path fill="none" stroke="black" d="M1624.16,-92.34C1633.34,-90.44 1642.81,-88.59 1651.76,-87 1753.88,-68.88 1779.36,-62.01 1882.76,-54 2162.55,-32.33 4238.55,-21.04 4594.8,-19.25"/>
<polygon fill="black" stroke="black" points="4594.78,-22.75 4604.76,-19.2 4594.74,-15.75 4594.78,-22.75"/>
<text text-anchor="middle" x="1957.26" y="-57.8" font-family="Times,serif" font-size="14.00">[1670019991&#45;1670019991]</text>
</g>
<!-- /sys/fs/cgroup/system.slice/fprintd.service/cgroup.procs -->
<g id="node4" class="node">
<title>/sys/fs/cgroup/system.slice/fprintd.service/cgroup.procs</title>
<ellipse fill="none" stroke="black" cx="1868.76" cy="-105" rx="207.96" ry="18"/>
<text text-anchor="middle" x="1868.76" y="-101.3" font-family="Times,serif" font-size="14.00">/sys/fs/cgroup/system.slice/fprintd.service/cgroup.procs</text>
</g>
<!-- /sys/fs/cgroup/system.slice/fprintd.service/cgroup.procs&#45;&gt;systemd -->
<g id="edge25" class="edge">
<title>/sys/fs/cgroup/system.slice/fprintd.service/cgroup.procs&#45;&gt;systemd</title>
<path fill="none" stroke="black" d="M1939.6,-87.6C1994.22,-75.78 2071.83,-60.77 2140.76,-54 2392.85,-29.25 4259.83,-20.57 4595.23,-19.2"/>
<polygon fill="black" stroke="black" points="4595.01,-22.7 4605,-19.16 4594.99,-15.7 4595.01,-22.7"/>
<text text-anchor="middle" x="2215.26" y="-57.8" font-family="Times,serif" font-size="14.00">[1670019958&#45;1670019958]</text>
</g>
<!-- /proc/303/cgroup -->
<g id="node5" class="node">
<title>/proc/303/cgroup</title>
<ellipse fill="none" stroke="black" cx="2165.76" cy="-105" rx="71.49" ry="18"/>
<text text-anchor="middle" x="2165.76" y="-101.3" font-family="Times,serif" font-size="14.00">/proc/303/cgroup</text>
</g>
<!-- /proc/303/cgroup&#45;&gt;systemd -->
<g id="edge13" class="edge">
<title>/proc/303/cgroup&#45;&gt;systemd</title>
<path fill="none" stroke="black" d="M2209.87,-90.4C2251.62,-78.24 2316.28,-61.26 2373.76,-54 2600.63,-25.34 4279.67,-19.89 4595.59,-19.11"/>
<polygon fill="black" stroke="black" points="4595.17,-22.61 4605.16,-19.09 4595.15,-15.61 4595.17,-22.61"/>
<text text-anchor="middle" x="2448.26" y="-57.8" font-family="Times,serif" font-size="14.00">[1670019961&#45;1670019961]</text>
</g>
<!-- /proc/17306/cgroup -->
<g id="node6" class="node">
<title>/proc/17306/cgroup</title>
<ellipse fill="none" stroke="black" cx="2334.76" cy="-105" rx="79.89" ry="18"/>
<text text-anchor="middle" x="2334.76" y="-101.3" font-family="Times,serif" font-size="14.00">/proc/17306/cgroup</text>
</g>
<!-- /proc/17306/cgroup&#45;&gt;systemd -->
<g id="edge2" class="edge">
<title>/proc/17306/cgroup&#45;&gt;systemd</title>
<path fill="none" stroke="black" d="M2392.13,-92.13C2454.66,-79.83 2557.82,-61.38 2647.76,-54 3042.52,-21.6 4322.15,-19.15 4595.2,-19"/>
<polygon fill="black" stroke="black" points="4594.83,-22.5 4604.83,-19 4594.83,-15.5 4594.83,-22.5"/>
<text text-anchor="middle" x="2722.26" y="-57.8" font-family="Times,serif" font-size="14.00">[1670019964&#45;1670019964]</text>
</g>
<!-- /sys/fs/cgroup/system.slice/fprintd.service/cpu.stat -->
<g id="node7" class="node">
<title>/sys/fs/cgroup/system.slice/fprintd.service/cpu.stat</title>
<ellipse fill="none" stroke="black" cx="2621.76" cy="-105" rx="189.27" ry="18"/>
<text text-anchor="middle" x="2621.76" y="-101.3" font-family="Times,serif" font-size="14.00">/sys/fs/cgroup/system.slice/fprintd.service/cpu.stat</text>
</g>
<!-- /sys/fs/cgroup/system.slice/fprintd.service/cpu.stat&#45;&gt;systemd -->
<g id="edge8" class="edge">
<title>/sys/fs/cgroup/system.slice/fprintd.service/cpu.stat&#45;&gt;systemd</title>
<path fill="none" stroke="black" d="M2696.41,-88C2754.95,-76.22 2838.64,-61.08 2912.76,-54 3251.52,-21.66 4343.91,-19.14 4594.98,-19"/>
<polygon fill="black" stroke="black" points="4594.78,-22.5 4604.78,-18.99 4594.78,-15.5 4594.78,-22.5"/>
<text text-anchor="middle" x="2987.26" y="-57.8" font-family="Times,serif" font-size="14.00">[1670019958&#45;1670019958]</text>
</g>
<!-- /proc/252/cgroup -->
<g id="node8" class="node">
<title>/proc/252/cgroup</title>
<ellipse fill="none" stroke="black" cx="2900.76" cy="-105" rx="71.49" ry="18"/>
<text text-anchor="middle" x="2900.76" y="-101.3" font-family="Times,serif" font-size="14.00">/proc/252/cgroup</text>
</g>
<!-- /proc/252/cgroup&#45;&gt;systemd -->
<g id="edge20" class="edge">
<title>/proc/252/cgroup&#45;&gt;systemd</title>
<path fill="none" stroke="black" d="M2951.46,-91.89C3005.26,-79.68 3092.95,-61.57 3169.76,-54 3455,-25.88 4367.89,-20.18 4595.15,-19.19"/>
<polygon fill="black" stroke="black" points="4594.88,-22.69 4604.86,-19.15 4594.85,-15.69 4594.88,-22.69"/>
<text text-anchor="middle" x="3244.26" y="-57.8" font-family="Times,serif" font-size="14.00">[1670020021&#45;1670020021]</text>
</g>
<!-- /proc/17250/comm -->
<g id="node10" class="node">
<title>/proc/17250/comm</title>
<ellipse fill="none" stroke="black" cx="3068.76" cy="-105" rx="78.79" ry="18"/>
<text text-anchor="middle" x="3068.76" y="-101.3" font-family="Times,serif" font-size="14.00">/proc/17250/comm</text>
</g>
<!-- /proc/17250/comm&#45;&gt;systemd -->
<g id="edge10" class="edge">
<title>/proc/17250/comm&#45;&gt;systemd</title>
<path fill="none" stroke="black" d="M3124.75,-91.99C3135.03,-90.09 3145.69,-88.32 3155.76,-87 3369.1,-58.98 3423.88,-65.07 3638.76,-54 4004.83,-35.14 4446.21,-23.72 4594.98,-20.19"/>
<polygon fill="black" stroke="black" points="4594.98,-23.69 4604.9,-19.95 4594.82,-16.69 4594.98,-23.69"/>
<text text-anchor="middle" x="3713.26" y="-57.8" font-family="Times,serif" font-size="14.00">[1670019958&#45;1670019958]</text>
</g>
<!-- /var/tmp/systemd&#45;private&#45;0ce62831ed334b57820cd2c9f839ffb2&#45;fprintd.service&#45;xnDdAk/tmp -->
<g id="node11" class="node">
<title>/var/tmp/systemd&#45;private&#45;0ce62831ed334b57820cd2c9f839ffb2&#45;fprintd.service&#45;xnDdAk/tmp</title>
<ellipse fill="none" stroke="black" cx="3505.76" cy="-105" rx="340.64" ry="18"/>
<text text-anchor="middle" x="3505.76" y="-101.3" font-family="Times,serif" font-size="14.00">/var/tmp/systemd&#45;private&#45;0ce62831ed334b57820cd2c9f839ffb2&#45;fprintd.service&#45;xnDdAk/tmp</text>
</g>
<!-- /var/tmp/systemd&#45;private&#45;0ce62831ed334b57820cd2c9f839ffb2&#45;fprintd.service&#45;xnDdAk/tmp&#45;&gt;systemd -->
<g id="edge16" class="edge">
<title>/var/tmp/systemd&#45;private&#45;0ce62831ed334b57820cd2c9f839ffb2&#45;fprintd.service&#45;xnDdAk/tmp&#45;&gt;systemd</title>
<path fill="none" stroke="black" d="M3625.82,-87.7C3711.04,-76.67 3828.24,-62.6 3931.76,-54 4179.93,-33.39 4477.63,-23.6 4595.3,-20.32"/>
<polygon fill="black" stroke="black" points="4595.36,-23.82 4605.26,-20.05 4595.17,-16.82 4595.36,-23.82"/>
<text text-anchor="middle" x="4006.26" y="-57.8" font-family="Times,serif" font-size="14.00">[1670019958&#45;1670019958]</text>
</g>
<!-- /proc/17306/comm -->
<g id="node12" class="node">
<title>/proc/17306/comm</title>
<ellipse fill="none" stroke="black" cx="3942.76" cy="-105" rx="78.79" ry="18"/>
<text text-anchor="middle" x="3942.76" y="-101.3" font-family="Times,serif" font-size="14.00">/proc/17306/comm</text>
</g>
<!-- /proc/17306/comm&#45;&gt;systemd -->
<g id="edge19" class="edge">
<title>/proc/17306/comm&#45;&gt;systemd</title>
<path fill="none" stroke="black" d="M3991.95,-90.64C4036.48,-79.08 4104.03,-62.87 4163.76,-54 4319.76,-30.84 4506.47,-22.83 4595.13,-20.2"/>
<polygon fill="black" stroke="black" points="4595.06,-23.7 4604.95,-19.92 4594.86,-16.71 4595.06,-23.7"/>
<text text-anchor="middle" x="4238.26" y="-57.8" font-family="Times,serif" font-size="14.00">[1670019964&#45;1670019964]</text>
</g>
<!-- /proc/17250/cgroup -->
<g id="node13" class="node">
<title>/proc/17250/cgroup</title>
<ellipse fill="none" stroke="black" cx="4119.76" cy="-105" rx="79.89" ry="18"/>
<text text-anchor="middle" x="4119.76" y="-101.3" font-family="Times,serif" font-size="14.00">/proc/17250/cgroup</text>
</g>
<!-- /proc/17250/cgroup&#45;&gt;systemd -->
<g id="edge14" class="edge">
<title>/proc/17250/cgroup&#45;&gt;systemd</title>
<path fill="none" stroke="black" d="M4178.59,-92.46C4188.65,-90.58 4199,-88.69 4208.76,-87 4349.51,-62.64 4516.43,-37.86 4597.57,-26.07"/>
<polygon fill="black" stroke="black" points="4598.01,-29.54 4607.4,-24.64 4597,-22.61 4598.01,-29.54"/>
<text text-anchor="middle" x="4476.26" y="-57.8" font-family="Times,serif" font-size="14.00">[1670019958&#45;1670019958]</text>
</g>
<!-- /sys/fs/cgroup/user.slice/user&#45;1000.slice/user@1000.service/background.slice/tracker&#45;extract&#45;3.service/memory.events -->
<g id="node14" class="node">
<title>/sys/fs/cgroup/user.slice/user&#45;1000.slice/user@1000.service/background.slice/tracker&#45;extract&#45;3.service/memory.events</title>
<ellipse fill="none" stroke="black" cx="4646.76" cy="-105" rx="428.92" ry="18"/>
<text text-anchor="middle" x="4646.76" y="-101.3" font-family="Times,serif" font-size="14.00">/sys/fs/cgroup/user.slice/user&#45;1000.slice/user@1000.service/background.slice/tracker&#45;extract&#45;3.service/memory.events</text>
</g>
<!-- /sys/fs/cgroup/user.slice/user&#45;1000.slice/user@1000.service/background.slice/tracker&#45;extract&#45;3.service/memory.events&#45;&gt;systemd -->
<g id="edge11" class="edge">
<title>/sys/fs/cgroup/user.slice/user&#45;1000.slice/user@1000.service/background.slice/tracker&#45;extract&#45;3.service/memory.events&#45;&gt;systemd</title>
<path fill="none" stroke="black" d="M4646.76,-86.8C4646.76,-75.58 4646.76,-60.67 4646.76,-47.69"/>
<polygon fill="black" stroke="black" points="4650.26,-47.98 4646.76,-37.98 4643.26,-47.98 4650.26,-47.98"/>
<text text-anchor="middle" x="4721.26" y="-57.8" font-family="Times,serif" font-size="14.00">[1670019964&#45;1670019964]</text>
</g>
<!-- /proc/537/cgroup -->
<g id="node15" class="node">
<title>/proc/537/cgroup</title>
<ellipse fill="none" stroke="black" cx="5164.76" cy="-105" rx="71.49" ry="18"/>
<text text-anchor="middle" x="5164.76" y="-101.3" font-family="Times,serif" font-size="14.00">/proc/537/cgroup</text>
</g>
<!-- /proc/537/cgroup&#45;&gt;systemd -->
<g id="edge12" class="edge">
<title>/proc/537/cgroup&#45;&gt;systemd</title>
<path fill="none" stroke="black" d="M5112.34,-92.43C5103.17,-90.53 5093.7,-88.64 5084.76,-87 4944.45,-61.22 4777.67,-37.12 4696.33,-25.78"/>
<polygon fill="black" stroke="black" points="4696.85,-22.32 4686.46,-24.41 4695.89,-29.26 4696.85,-22.32"/>
<text text-anchor="middle" x="5052.26" y="-57.8" font-family="Times,serif" font-size="14.00">[1670020021&#45;1670020021]</text>
</g>
<!-- /sys/fs/cgroup/user.slice/user&#45;1000.slice/user@1000.service/background.slice/tracker&#45;extract&#45;3.service/cgroup.threads -->
<g id="node16" class="node">
<title>/sys/fs/cgroup/user.slice/user&#45;1000.slice/user@1000.service/background.slice/tracker&#45;extract&#45;3.service/cgroup.threads</title>
<ellipse fill="none" stroke="black" cx="5680.76" cy="-105" rx="426.22" ry="18"/>
<text text-anchor="middle" x="5680.76" y="-101.3" font-family="Times,serif" font-size="14.00">/sys/fs/cgroup/user.slice/user&#45;1000.slice/user@1000.service/background.slice/tracker&#45;extract&#45;3.service/cgroup.threads</text>
</g>
<!-- /sys/fs/cgroup/user.slice/user&#45;1000.slice/user@1000.service/background.slice/tracker&#45;extract&#45;3.service/cgroup.threads&#45;&gt;systemd -->
<g id="edge24" class="edge">
<title>/sys/fs/cgroup/user.slice/user&#45;1000.slice/user@1000.service/background.slice/tracker&#45;extract&#45;3.service/cgroup.threads&#45;&gt;systemd</title>
<path fill="none" stroke="black" d="M5513.55,-87.99C5404.59,-77.76 5259.29,-64.49 5130.76,-54 4972.85,-41.11 4785.76,-28.27 4697.57,-22.36"/>
<polygon fill="black" stroke="black" points="4698.03,-18.89 4687.82,-21.71 4697.56,-25.87 4698.03,-18.89"/>
<text text-anchor="middle" x="5372.26" y="-57.8" font-family="Times,serif" font-size="14.00">[1670019964&#45;1670019964]</text>
</g>
<!-- /proc/429/cgroup -->
<g id="node17" class="node">
<title>/proc/429/cgroup</title>
<ellipse fill="none" stroke="black" cx="6196.76" cy="-105" rx="71.49" ry="18"/>
<text text-anchor="middle" x="6196.76" y="-101.3" font-family="Times,serif" font-size="14.00">/proc/429/cgroup</text>
</g>
<!-- /proc/429/cgroup&#45;&gt;systemd -->
<g id="edge9" class="edge">
<title>/proc/429/cgroup&#45;&gt;systemd</title>
<path fill="none" stroke="black" d="M6145.98,-92.07C6136.01,-90.09 6125.6,-88.27 6115.76,-87 5832.81,-50.52 4924.32,-25.91 4698.13,-20.25"/>
<polygon fill="black" stroke="black" points="4698.55,-16.76 4688.47,-20.01 4698.38,-23.75 4698.55,-16.76"/>
<text text-anchor="middle" x="5980.26" y="-57.8" font-family="Times,serif" font-size="14.00">[1670020021&#45;1670020021]</text>
</g>
<!-- /proc/4293/cgroup -->
<g id="node18" class="node">
<title>/proc/4293/cgroup</title>
<ellipse fill="none" stroke="black" cx="6361.76" cy="-105" rx="75.29" ry="18"/>
<text text-anchor="middle" x="6361.76" y="-101.3" font-family="Times,serif" font-size="14.00">/proc/4293/cgroup</text>
</g>
<!-- /proc/4293/cgroup&#45;&gt;systemd -->
<g id="edge23" class="edge">
<title>/proc/4293/cgroup&#45;&gt;systemd</title>
<path fill="none" stroke="black" d="M6306.79,-92.34C6246.33,-80.12 6146.13,-61.67 6058.76,-54 5786.68,-30.13 4918.95,-21.3 4698.22,-19.41"/>
<polygon fill="black" stroke="black" points="4698.55,-15.91 4688.52,-19.33 4698.49,-22.91 4698.55,-15.91"/>
<text text-anchor="middle" x="6251.26" y="-57.8" font-family="Times,serif" font-size="14.00">[1670020020&#45;1670020020]</text>
</g>
<!-- /sys/fs/cgroup/user.slice/user&#45;1000.slice/user@1000.service/background.slice/tracker&#45;extract&#45;3.service/cgroup.procs -->
<g id="node19" class="node">
<title>/sys/fs/cgroup/user.slice/user&#45;1000.slice/user@1000.service/background.slice/tracker&#45;extract&#45;3.service/cgroup.procs</title>
<ellipse fill="none" stroke="black" cx="6875.76" cy="-105" rx="420.53" ry="18"/>
<text text-anchor="middle" x="6875.76" y="-101.3" font-family="Times,serif" font-size="14.00">/sys/fs/cgroup/user.slice/user&#45;1000.slice/user@1000.service/background.slice/tracker&#45;extract&#45;3.service/cgroup.procs</text>
</g>
<!-- /sys/fs/cgroup/user.slice/user&#45;1000.slice/user@1000.service/background.slice/tracker&#45;extract&#45;3.service/cgroup.procs&#45;&gt;systemd -->
<g id="edge15" class="edge">
<title>/sys/fs/cgroup/user.slice/user&#45;1000.slice/user@1000.service/background.slice/tracker&#45;extract&#45;3.service/cgroup.procs&#45;&gt;systemd</title>
<path fill="none" stroke="black" d="M6728.53,-87.68C6618.76,-76.21 6465.07,-61.59 6329.76,-54 5687.16,-17.94 4904.68,-18.02 4698.53,-18.75"/>
<polygon fill="black" stroke="black" points="4698.68,-15.25 4688.7,-18.78 4698.71,-22.25 4698.68,-15.25"/>
<text text-anchor="middle" x="6600.26" y="-57.8" font-family="Times,serif" font-size="14.00">[1670019964&#45;1670019964]</text>
</g>
<!-- /sys/fs/cgroup/user.slice/user&#45;1000.slice/user@1000.service/background.slice/tracker&#45;extract&#45;3.service/cpu.stat -->
<g id="node20" class="node">
<title>/sys/fs/cgroup/user.slice/user&#45;1000.slice/user@1000.service/background.slice/tracker&#45;extract&#45;3.service/cpu.stat</title>
<ellipse fill="none" stroke="black" cx="7715.76" cy="-105" rx="401.83" ry="18"/>
<text text-anchor="middle" x="7715.76" y="-101.3" font-family="Times,serif" font-size="14.00">/sys/fs/cgroup/user.slice/user&#45;1000.slice/user@1000.service/background.slice/tracker&#45;extract&#45;3.service/cpu.stat</text>
</g>
<!-- /sys/fs/cgroup/user.slice/user&#45;1000.slice/user@1000.service/background.slice/tracker&#45;extract&#45;3.service/cpu.stat&#45;&gt;systemd -->
<g id="edge4" class="edge">
<title>/sys/fs/cgroup/user.slice/user&#45;1000.slice/user@1000.service/background.slice/tracker&#45;extract&#45;3.service/cpu.stat&#45;&gt;systemd</title>
<path fill="none" stroke="black" d="M7474.1,-90.23C7263.99,-78.76 6951.35,-62.92 6678.76,-54 5890.65,-28.22 4929.93,-20.78 4698.62,-19.3"/>
<polygon fill="black" stroke="black" points="4698.76,-15.8 4688.74,-19.24 4698.71,-22.8 4698.76,-15.8"/>
<text text-anchor="middle" x="7123.26" y="-57.8" font-family="Times,serif" font-size="14.00">[1670019964&#45;1670019964]</text>
</g>
<!-- /sys/fs/cgroup/system.slice/fprintd.service/memory.events -->
<g id="node21" class="node">
<title>/sys/fs/cgroup/system.slice/fprintd.service/memory.events</title>
<ellipse fill="none" stroke="black" cx="8351.76" cy="-105" rx="216.36" ry="18"/>
<text text-anchor="middle" x="8351.76" y="-101.3" font-family="Times,serif" font-size="14.00">/sys/fs/cgroup/system.slice/fprintd.service/memory.events</text>
</g>
<!-- /sys/fs/cgroup/system.slice/fprintd.service/memory.events&#45;&gt;systemd -->
<g id="edge21" class="edge">
<title>/sys/fs/cgroup/system.slice/fprintd.service/memory.events&#45;&gt;systemd</title>
<path fill="none" stroke="black" d="M8200.53,-91.74C8175.89,-89.99 8150.62,-88.33 8126.76,-87 7716.02,-64.17 7613.01,-64.15 7201.76,-54 6193.96,-29.12 4962.09,-20.83 4698.08,-19.28"/>
<polygon fill="black" stroke="black" points="4698.48,-15.79 4688.46,-19.23 4698.44,-22.79 4698.48,-15.79"/>
<text text-anchor="middle" x="7816.26" y="-57.8" font-family="Times,serif" font-size="14.00">[1670019958&#45;1670019958]</text>
</g>
<!-- /tmp/systemd&#45;private&#45;0ce62831ed334b57820cd2c9f839ffb2&#45;fprintd.service&#45;ZJFHq7/tmp -->
<g id="node22" class="node">
<title>/tmp/systemd&#45;private&#45;0ce62831ed334b57820cd2c9f839ffb2&#45;fprintd.service&#45;ZJFHq7/tmp</title>
<ellipse fill="none" stroke="black" cx="8910.76" cy="-105" rx="324.94" ry="18"/>
<text text-anchor="middle" x="8910.76" y="-101.3" font-family="Times,serif" font-size="14.00">/tmp/systemd&#45;private&#45;0ce62831ed334b57820cd2c9f839ffb2&#45;fprintd.service&#45;ZJFHq7/tmp</text>
</g>
<!-- /tmp/systemd&#45;private&#45;0ce62831ed334b57820cd2c9f839ffb2&#45;fprintd.service&#45;ZJFHq7/tmp&#45;&gt;systemd -->
<g id="edge17" class="edge">
<title>/tmp/systemd&#45;private&#45;0ce62831ed334b57820cd2c9f839ffb2&#45;fprintd.service&#45;ZJFHq7/tmp&#45;&gt;systemd</title>
<path fill="none" stroke="black" d="M8697.28,-91.06C8491.76,-79.17 8172.13,-62.2 7894.76,-54 6595.29,-15.57 5002.27,-17.97 4698.21,-18.83"/>
<polygon fill="black" stroke="black" points="4698.62,-15.33 4688.63,-18.86 4698.64,-22.33 4698.62,-15.33"/>
<text text-anchor="middle" x="8332.26" y="-57.8" font-family="Times,serif" font-size="14.00">[1670019958&#45;1670019958]</text>
</g>
<!-- /sys/fs/cgroup/system.slice/fprintd.service/cgroup.events -->
<g id="node23" class="node">
<title>/sys/fs/cgroup/system.slice/fprintd.service/cgroup.events</title>
<ellipse fill="none" stroke="black" cx="9464.76" cy="-105" rx="211.46" ry="18"/>
<text text-anchor="middle" x="9464.76" y="-101.3" font-family="Times,serif" font-size="14.00">/sys/fs/cgroup/system.slice/fprintd.service/cgroup.events</text>
</g>
<!-- /sys/fs/cgroup/system.slice/fprintd.service/cgroup.events&#45;&gt;systemd -->
<g id="edge3" class="edge">
<title>/sys/fs/cgroup/system.slice/fprintd.service/cgroup.events&#45;&gt;systemd</title>
<path fill="none" stroke="black" d="M9316.59,-91.79C9292.59,-90.03 9268,-88.36 9244.76,-87 8874.44,-65.37 8781.61,-63.06 8410.76,-54 6892.68,-16.92 5029.32,-18.32 4698.25,-18.89"/>
<polygon fill="black" stroke="black" points="4698.63,-15.39 4688.64,-18.91 4698.64,-22.39 4698.63,-15.39"/>
<text text-anchor="middle" x="8972.26" y="-57.8" font-family="Times,serif" font-size="14.00">[1670019958&#45;1670019958]</text>
</g>
<!-- /var/tmp/systemd&#45;private&#45;0ce62831ed334b57820cd2c9f839ffb2&#45;fprintd.service&#45;xnDdAk -->
<g id="node24" class="node">
<title>/var/tmp/systemd&#45;private&#45;0ce62831ed334b57820cd2c9f839ffb2&#45;fprintd.service&#45;xnDdAk</title>
<ellipse fill="none" stroke="black" cx="10017.76" cy="-105" rx="323.84" ry="18"/>
<text text-anchor="middle" x="10017.76" y="-101.3" font-family="Times,serif" font-size="14.00">/var/tmp/systemd&#45;private&#45;0ce62831ed334b57820cd2c9f839ffb2&#45;fprintd.service&#45;xnDdAk</text>
</g>
<!-- /var/tmp/systemd&#45;private&#45;0ce62831ed334b57820cd2c9f839ffb2&#45;fprintd.service&#45;xnDdAk&#45;&gt;systemd -->
<g id="edge5" class="edge">
<title>/var/tmp/systemd&#45;private&#45;0ce62831ed334b57820cd2c9f839ffb2&#45;fprintd.service&#45;xnDdAk&#45;&gt;systemd</title>
<path fill="none" stroke="black" d="M9811.78,-90.74C9616.09,-78.75 9313.52,-61.83 9050.76,-54 8143.57,-26.95 5131.6,-19.97 4698.75,-19.1"/>
<polygon fill="black" stroke="black" points="4698.8,-15.6 4688.79,-19.08 4698.78,-22.6 4698.8,-15.6"/>
<text text-anchor="middle" x="9470.26" y="-57.8" font-family="Times,serif" font-size="14.00">[1670019958&#45;1670019958]</text>
</g>
<!-- /proc/422/cgroup -->
<g id="node25" class="node">
<title>/proc/422/cgroup</title>
<ellipse fill="none" stroke="black" cx="10430.76" cy="-105" rx="71.49" ry="18"/>
<text text-anchor="middle" x="10430.76" y="-101.3" font-family="Times,serif" font-size="14.00">/proc/422/cgroup</text>
</g>
<!-- /proc/422/cgroup&#45;&gt;systemd -->
<g id="edge1" class="edge">
<title>/proc/422/cgroup&#45;&gt;systemd</title>
<path fill="none" stroke="black" d="M10380.2,-91.91C10370.48,-89.97 10360.34,-88.21 10350.76,-87 9996.81,-42.43 9905.4,-62.61 9548.76,-54 8534.4,-29.52 5156.9,-20.28 4698.45,-19.13"/>
<polygon fill="black" stroke="black" points="4698.77,-15.63 4688.76,-19.1 4698.75,-22.63 4698.77,-15.63"/>
<text text-anchor="middle" x="10256.26" y="-57.8" font-family="Times,serif" font-size="14.00">[1670019984&#45;1670019984]</text>
</g>
<!-- /sys/fs/cgroup/system.slice/fprintd.service/cgroup.threads -->
<g id="node26" class="node">
<title>/sys/fs/cgroup/system.slice/fprintd.service/cgroup.threads</title>
<ellipse fill="none" stroke="black" cx="10733.76" cy="-105" rx="213.66" ry="18"/>
<text text-anchor="middle" x="10733.76" y="-101.3" font-family="Times,serif" font-size="14.00">/sys/fs/cgroup/system.slice/fprintd.service/cgroup.threads</text>
</g>
<!-- /sys/fs/cgroup/system.slice/fprintd.service/cgroup.threads&#45;&gt;systemd -->
<g id="edge18" class="edge">
<title>/sys/fs/cgroup/system.slice/fprintd.service/cgroup.threads&#45;&gt;systemd</title>
<path fill="none" stroke="black" d="M10636.5,-88.54C10555.9,-76.52 10438.21,-60.78 10334.76,-54 9741.58,-15.15 5232.24,-18.42 4698.36,-18.94"/>
<polygon fill="black" stroke="black" points="4698.7,-15.44 4688.71,-18.95 4698.71,-22.44 4698.7,-15.44"/>
<text text-anchor="middle" x="10562.26" y="-57.8" font-family="Times,serif" font-size="14.00">[1670019958&#45;1670019958]</text>
</g>
</g>
</svg>
