<?xml version="1.0" encoding="UTF-8" standalone="no"?>
<!DOCTYPE svg PUBLIC "-//W3C//DTD SVG 1.1//EN"
 "http://www.w3.org/Graphics/SVG/1.1/DTD/svg11.dtd">
<!-- Generated by graphviz version 7.0.2 (20221119.0110)
 -->
<!-- Pages: 1 -->
<svg width="10956pt" height="131pt"
 viewBox="0.00 0.00 10955.62 131.00" xmlns="http://www.w3.org/2000/svg" xmlns:xlink="http://www.w3.org/1999/xlink">
<g id="graph0" class="graph" transform="scale(1 1) rotate(0) translate(4 127)">
<polygon fill="white" stroke="none" points="-4,4 -4,-127 10951.62,-127 10951.62,4 -4,4"/>
<!-- /sys/fs/cgroup/system.slice/fprintd.service/cgroup.procs -->
<g id="node1" class="node">
<title>/sys/fs/cgroup/system.slice/fprintd.service/cgroup.procs</title>
<ellipse fill="none" stroke="black" cx="207.98" cy="-105" rx="207.96" ry="18"/>
<text text-anchor="middle" x="207.98" y="-101.3" font-family="Times,serif" font-size="14.00">/sys/fs/cgroup/system.slice/fprintd.service/cgroup.procs</text>
</g>
<!-- systemd -->
<g id="node16" class="node">
<title>systemd</title>
<ellipse fill="none" stroke="black" cx="5721.98" cy="-18" rx="40.09" ry="18"/>
<text text-anchor="middle" x="5721.98" y="-14.3" font-family="Times,serif" font-size="14.00">systemd</text>
</g>
<!-- /sys/fs/cgroup/system.slice/fprintd.service/cgroup.procs&#45;&gt;systemd -->
<g id="edge16" class="edge">
<title>/sys/fs/cgroup/system.slice/fprintd.service/cgroup.procs&#45;&gt;systemd</title>
<path fill="none" stroke="black" d="M352.95,-91.74C377,-89.97 401.68,-88.31 424.98,-87 858.77,-62.69 967.61,-63.09 1401.98,-54 3155.92,-17.28 5311.16,-18.44 5670.18,-18.92"/>
<polygon fill="black" stroke="black" points="5669.95,-22.42 5679.96,-18.93 5669.96,-15.42 5669.95,-22.42"/>
<text text-anchor="middle" x="1476.48" y="-57.8" font-family="Times,serif" font-size="14.00">[1670019958&#45;1670019958]</text>
</g>
<!-- /sys/fs/cgroup/user.slice/user&#45;1000.slice/user@1000.service/background.slice/tracker&#45;extract&#45;3.service/cgroup.events -->
<g id="node2" class="node">
<title>/sys/fs/cgroup/user.slice/user&#45;1000.slice/user@1000.service/background.slice/tracker&#45;extract&#45;3.service/cgroup.events</title>
<ellipse fill="none" stroke="black" cx="857.98" cy="-105" rx="423.52" ry="18"/>
<text text-anchor="middle" x="857.98" y="-101.3" font-family="Times,serif" font-size="14.00">/sys/fs/cgroup/user.slice/user&#45;1000.slice/user@1000.service/background.slice/tracker&#45;extract&#45;3.service/cgroup.events</text>
</g>
<!-- /sys/fs/cgroup/user.slice/user&#45;1000.slice/user@1000.service/background.slice/tracker&#45;extract&#45;3.service/cgroup.events&#45;&gt;systemd -->
<g id="edge10" class="edge">
<title>/sys/fs/cgroup/user.slice/user&#45;1000.slice/user@1000.service/background.slice/tracker&#45;extract&#45;3.service/cgroup.events&#45;&gt;systemd</title>
<path fill="none" stroke="black" d="M1105.67,-89.99C1325.52,-78.17 1655.53,-61.95 1942.98,-54 2716.65,-32.6 5273.92,-20.92 5670.19,-19.22"/>
<polygon fill="black" stroke="black" points="5670.05,-22.72 5680.03,-19.18 5670.02,-15.72 5670.05,-22.72"/>
<text text-anchor="middle" x="2017.48" y="-57.8" font-family="Times,serif" font-size="14.00">[1670019964&#45;1670019964]</text>
</g>
<!-- /sys/fs/cgroup/user.slice/user&#45;1000.slice/user@1000.service/background.slice/tracker&#45;extract&#45;3.service/cpu.stat -->
<g id="node3" class="node">
<title>/sys/fs/cgroup/user.slice/user&#45;1000.slice/user@1000.service/background.slice/tracker&#45;extract&#45;3.service/cpu.stat</title>
<ellipse fill="none" stroke="black" cx="1700.98" cy="-105" rx="401.83" ry="18"/>
<text text-anchor="middle" x="1700.98" y="-101.3" font-family="Times,serif" font-size="14.00">/sys/fs/cgroup/user.slice/user&#45;1000.slice/user@1000.service/background.slice/tracker&#45;extract&#45;3.service/cpu.stat</text>
</g>
<!-- /sys/fs/cgroup/user.slice/user&#45;1000.slice/user@1000.service/background.slice/tracker&#45;extract&#45;3.service/cpu.stat&#45;&gt;systemd -->
<g id="edge11" class="edge">
<title>/sys/fs/cgroup/user.slice/user&#45;1000.slice/user@1000.service/background.slice/tracker&#45;extract&#45;3.service/cpu.stat&#45;&gt;systemd</title>
<path fill="none" stroke="black" d="M1859.43,-88.01C1983.51,-76.25 2160.55,-61.11 2315.98,-54 3009.58,-22.28 5296.57,-19.3 5670.16,-19.03"/>
<polygon fill="black" stroke="black" points="5670.14,-22.53 5680.14,-19.02 5670.14,-15.53 5670.14,-22.53"/>
<text text-anchor="middle" x="2390.48" y="-57.8" font-family="Times,serif" font-size="14.00">[1670019964&#45;1670019964]</text>
</g>
<!-- /proc/17306/comm -->
<g id="node4" class="node">
<title>/proc/17306/comm</title>
<ellipse fill="none" stroke="black" cx="2198.98" cy="-105" rx="78.79" ry="18"/>
<text text-anchor="middle" x="2198.98" y="-101.3" font-family="Times,serif" font-size="14.00">/proc/17306/comm</text>
</g>
<!-- /proc/17306/comm&#45;&gt;systemd -->
<g id="edge9" class="edge">
<title>/proc/17306/comm&#45;&gt;systemd</title>
<path fill="none" stroke="black" d="M2254.66,-92.01C2265.34,-90.06 2276.48,-88.27 2286.98,-87 2583.86,-51.22 2660.1,-63.23 2958.98,-54 4053.89,-20.19 5393.83,-18.85 5670.55,-18.95"/>
<polygon fill="black" stroke="black" points="5670.3,-22.45 5680.3,-18.96 5670.3,-15.45 5670.3,-22.45"/>
<text text-anchor="middle" x="3033.48" y="-57.8" font-family="Times,serif" font-size="14.00">[1670019964&#45;1670019964]</text>
</g>
<!-- /sys/fs/cgroup/user.slice/user&#45;1000.slice/user@1000.service/background.slice/tracker&#45;extract&#45;3.service/cgroup.threads -->
<g id="node5" class="node">
<title>/sys/fs/cgroup/user.slice/user&#45;1000.slice/user@1000.service/background.slice/tracker&#45;extract&#45;3.service/cgroup.threads</title>
<ellipse fill="none" stroke="black" cx="2721.98" cy="-105" rx="426.22" ry="18"/>
<text text-anchor="middle" x="2721.98" y="-101.3" font-family="Times,serif" font-size="14.00">/sys/fs/cgroup/user.slice/user&#45;1000.slice/user@1000.service/background.slice/tracker&#45;extract&#45;3.service/cgroup.threads</text>
</g>
<!-- /sys/fs/cgroup/user.slice/user&#45;1000.slice/user@1000.service/background.slice/tracker&#45;extract&#45;3.service/cgroup.threads&#45;&gt;systemd -->
<g id="edge20" class="edge">
<title>/sys/fs/cgroup/user.slice/user&#45;1000.slice/user@1000.service/background.slice/tracker&#45;extract&#45;3.service/cgroup.threads&#45;&gt;systemd</title>
<path fill="none" stroke="black" d="M2881.6,-87.86C3003.68,-76.24 3176.28,-61.36 3327.98,-54 3806.83,-30.77 5366.41,-20.99 5670.36,-19.28"/>
<polygon fill="black" stroke="black" points="5670.37,-22.78 5680.36,-19.22 5670.34,-15.78 5670.37,-22.78"/>
<text text-anchor="middle" x="3402.48" y="-57.8" font-family="Times,serif" font-size="14.00">[1670019964&#45;1670019964]</text>
</g>
<!-- /proc/424/cgroup -->
<g id="node6" class="node">
<title>/proc/424/cgroup</title>
<ellipse fill="none" stroke="black" cx="3237.98" cy="-105" rx="71.49" ry="18"/>
<text text-anchor="middle" x="3237.98" y="-101.3" font-family="Times,serif" font-size="14.00">/proc/424/cgroup</text>
</g>
<!-- /proc/424/cgroup&#45;&gt;systemd -->
<g id="edge24" class="edge">
<title>/proc/424/cgroup&#45;&gt;systemd</title>
<path fill="none" stroke="black" d="M3289.21,-92.11C3299.05,-90.15 3309.3,-88.33 3318.98,-87 3537.85,-56.9 3594.25,-63.36 3814.98,-54 4551.15,-22.77 5448.34,-19.39 5670.43,-19.04"/>
<polygon fill="black" stroke="black" points="5670.19,-22.54 5680.19,-19.02 5670.18,-15.54 5670.19,-22.54"/>
<text text-anchor="middle" x="3889.48" y="-57.8" font-family="Times,serif" font-size="14.00">[1670019991&#45;1670019991]</text>
</g>
<!-- /sys/fs/cgroup/system.slice/fprintd.service/memory.events -->
<g id="node7" class="node">
<title>/sys/fs/cgroup/system.slice/fprintd.service/memory.events</title>
<ellipse fill="none" stroke="black" cx="3543.98" cy="-105" rx="216.36" ry="18"/>
<text text-anchor="middle" x="3543.98" y="-101.3" font-family="Times,serif" font-size="14.00">/sys/fs/cgroup/system.slice/fprintd.service/memory.events</text>
</g>
<!-- /sys/fs/cgroup/system.slice/fprintd.service/memory.events&#45;&gt;systemd -->
<g id="edge6" class="edge">
<title>/sys/fs/cgroup/system.slice/fprintd.service/memory.events&#45;&gt;systemd</title>
<path fill="none" stroke="black" d="M3685.89,-91.06C3819.26,-79.42 4024.49,-62.82 4202.98,-54 4778.13,-25.57 5476.96,-20.18 5670.29,-19.2"/>
<polygon fill="black" stroke="black" points="5670.26,-22.7 5680.25,-19.16 5670.23,-15.7 5670.26,-22.7"/>
<text text-anchor="middle" x="4277.48" y="-57.8" font-family="Times,serif" font-size="14.00">[1670019958&#45;1670019958]</text>
</g>
<!-- /sys/fs/cgroup/system.slice/fprintd.service/cgroup.threads -->
<g id="node8" class="node">
<title>/sys/fs/cgroup/system.slice/fprintd.service/cgroup.threads</title>
<ellipse fill="none" stroke="black" cx="3991.98" cy="-105" rx="213.66" ry="18"/>
<text text-anchor="middle" x="3991.98" y="-101.3" font-family="Times,serif" font-size="14.00">/sys/fs/cgroup/system.slice/fprintd.service/cgroup.threads</text>
</g>
<!-- /sys/fs/cgroup/system.slice/fprintd.service/cgroup.threads&#45;&gt;systemd -->
<g id="edge17" class="edge">
<title>/sys/fs/cgroup/system.slice/fprintd.service/cgroup.threads&#45;&gt;systemd</title>
<path fill="none" stroke="black" d="M4122.21,-90.33C4236.83,-78.82 4408.3,-62.85 4557.98,-54 4987.64,-28.58 5507.67,-21.24 5670.63,-19.48"/>
<polygon fill="black" stroke="black" points="5670.26,-22.99 5680.22,-19.38 5670.19,-15.99 5670.26,-22.99"/>
<text text-anchor="middle" x="4632.48" y="-57.8" font-family="Times,serif" font-size="14.00">[1670019958&#45;1670019958]</text>
</g>
<!-- /sys/fs/cgroup/system.slice/fprintd.service/cgroup.events -->
<g id="node9" class="node">
<title>/sys/fs/cgroup/system.slice/fprintd.service/cgroup.events</title>
<ellipse fill="none" stroke="black" cx="4434.98" cy="-105" rx="211.46" ry="18"/>
<text text-anchor="middle" x="4434.98" y="-101.3" font-family="Times,serif" font-size="14.00">/sys/fs/cgroup/system.slice/fprintd.service/cgroup.events</text>
</g>
<!-- /sys/fs/cgroup/system.slice/fprintd.service/cgroup.events&#45;&gt;systemd -->
<g id="edge5" class="edge">
<title>/sys/fs/cgroup/system.slice/fprintd.service/cgroup.events&#45;&gt;systemd</title>
<path fill="none" stroke="black" d="M4543.19,-89.1C4629.8,-77.73 4754.47,-62.6 4863.98,-54 5169.11,-30.03 5536.66,-22 5670.26,-19.75"/>
<polygon fill="black" stroke="black" points="5670.26,-23.25 5680.2,-19.59 5670.14,-16.26 5670.26,-23.25"/>
<text text-anchor="middle" x="4938.48" y="-57.8" font-family="Times,serif" font-size="14.00">[1670019958&#45;1670019958]</text>
</g>
<!-- /sys/fs/cgroup/system.slice/fprintd.service/cpu.stat -->
<g id="node10" class="node">
<title>/sys/fs/cgroup/system.slice/fprintd.service/cpu.stat</title>
<ellipse fill="none" stroke="black" cx="4852.98" cy="-105" rx="189.27" ry="18"/>
<text text-anchor="middle" x="4852.98" y="-101.3" font-family="Times,serif" font-size="14.00">/sys/fs/cgroup/system.slice/fprintd.service/cpu.stat</text>
</g>
<!-- /sys/fs/cgroup/system.slice/fprintd.service/cpu.stat&#45;&gt;systemd -->
<g id="edge7" class="edge">
<title>/sys/fs/cgroup/system.slice/fprintd.service/cpu.stat&#45;&gt;systemd</title>
<path fill="none" stroke="black" d="M4922.1,-87.79C4973.17,-76.46 5044.53,-61.99 5107.98,-54 5315.26,-27.9 5564.37,-21.25 5670.28,-19.57"/>
<polygon fill="black" stroke="black" points="5670.12,-23.07 5680.07,-19.42 5670.01,-16.07 5670.12,-23.07"/>
<text text-anchor="middle" x="5182.48" y="-57.8" font-family="Times,serif" font-size="14.00">[1670019958&#45;1670019958]</text>
</g>
<!-- /proc/17306/cgroup -->
<g id="node11" class="node">
<title>/proc/17306/cgroup</title>
<ellipse fill="none" stroke="black" cx="5139.98" cy="-105" rx="79.89" ry="18"/>
<text text-anchor="middle" x="5139.98" y="-101.3" font-family="Times,serif" font-size="14.00">/proc/17306/cgroup</text>
</g>
<!-- /proc/17306/cgroup&#45;&gt;systemd -->
<g id="edge14" class="edge">
<title>/proc/17306/cgroup&#45;&gt;systemd</title>
<path fill="none" stroke="black" d="M5184.7,-89.79C5222.49,-78.34 5278.25,-62.75 5327.98,-54 5449.89,-32.54 5595.45,-23.95 5670.92,-20.74"/>
<polygon fill="black" stroke="black" points="5670.62,-24.26 5680.47,-20.35 5670.33,-17.26 5670.62,-24.26"/>
<text text-anchor="middle" x="5402.48" y="-57.8" font-family="Times,serif" font-size="14.00">[1670019964&#45;1670019964]</text>
</g>
<!-- /proc/429/cgroup -->
<g id="node12" class="node">
<title>/proc/429/cgroup</title>
<ellipse fill="none" stroke="black" cx="5308.98" cy="-105" rx="71.49" ry="18"/>
<text text-anchor="middle" x="5308.98" y="-101.3" font-family="Times,serif" font-size="14.00">/proc/429/cgroup</text>
</g>
<!-- /proc/429/cgroup&#45;&gt;systemd -->
<g id="edge21" class="edge">
<title>/proc/429/cgroup&#45;&gt;systemd</title>
<path fill="none" stroke="black" d="M5362.33,-92.6C5371.23,-90.72 5380.36,-88.8 5388.98,-87 5490.88,-65.77 5610.47,-41.51 5674.98,-28.48"/>
<polygon fill="black" stroke="black" points="5675.4,-31.96 5684.51,-26.55 5674.01,-25.1 5675.4,-31.96"/>
<text text-anchor="middle" x="5619.48" y="-57.8" font-family="Times,serif" font-size="14.00">[1670020021&#45;1670020021]</text>
</g>
<!-- /var/tmp/systemd&#45;private&#45;0ce62831ed334b57820cd2c9f839ffb2&#45;fprintd.service&#45;xnDdAk -->
<g id="node13" class="node">
<title>/var/tmp/systemd&#45;private&#45;0ce62831ed334b57820cd2c9f839ffb2&#45;fprintd.service&#45;xnDdAk</title>
<ellipse fill="none" stroke="black" cx="5721.98" cy="-105" rx="323.84" ry="18"/>
<text text-anchor="middle" x="5721.98" y="-101.3" font-family="Times,serif" font-size="14.00">/var/tmp/systemd&#45;private&#45;0ce62831ed334b57820cd2c9f839ffb2&#45;fprintd.service&#45;xnDdAk</text>
</g>
<!-- /var/tmp/systemd&#45;private&#45;0ce62831ed334b57820cd2c9f839ffb2&#45;fprintd.service&#45;xnDdAk&#45;&gt;systemd -->
<g id="edge19" class="edge">
<title>/var/tmp/systemd&#45;private&#45;0ce62831ed334b57820cd2c9f839ffb2&#45;fprintd.service&#45;xnDdAk&#45;&gt;systemd</title>
<path fill="none" stroke="black" d="M5721.98,-86.8C5721.98,-75.58 5721.98,-60.67 5721.98,-47.69"/>
<polygon fill="black" stroke="black" points="5725.48,-47.98 5721.98,-37.98 5718.48,-47.98 5725.48,-47.98"/>
<text text-anchor="middle" x="5796.48" y="-57.8" font-family="Times,serif" font-size="14.00">[1670019958&#45;1670019958]</text>
</g>
<!-- /proc/17250/cgroup -->
<g id="node14" class="node">
<title>/proc/17250/cgroup</title>
<ellipse fill="none" stroke="black" cx="6143.98" cy="-105" rx="79.89" ry="18"/>
<text text-anchor="middle" x="6143.98" y="-101.3" font-family="Times,serif" font-size="14.00">/proc/17250/cgroup</text>
</g>
<!-- /proc/17250/cgroup&#45;&gt;systemd -->
<g id="edge23" class="edge">
<title>/proc/17250/cgroup&#45;&gt;systemd</title>
<path fill="none" stroke="black" d="M6085.75,-92.27C6001.38,-75.28 5846.77,-44.13 5769.12,-28.49"/>
<polygon fill="black" stroke="black" points="5770.21,-25.14 5759.72,-26.6 5768.83,-32.01 5770.21,-25.14"/>
<text text-anchor="middle" x="6033.48" y="-57.8" font-family="Times,serif" font-size="14.00">[1670019958&#45;1670019958]</text>
</g>
<!-- /proc/303/cgroup -->
<g id="node15" class="node">
<title>/proc/303/cgroup</title>
<ellipse fill="none" stroke="black" cx="6312.98" cy="-105" rx="71.49" ry="18"/>
<text text-anchor="middle" x="6312.98" y="-101.3" font-family="Times,serif" font-size="14.00">/proc/303/cgroup</text>
</g>
<!-- /proc/303/cgroup&#45;&gt;systemd -->
<g id="edge18" class="edge">
<title>/proc/303/cgroup&#45;&gt;systemd</title>
<path fill="none" stroke="black" d="M6267.9,-90.66C6227.44,-79.2 6166.24,-63.13 6111.98,-54 5991.71,-33.77 5848.48,-24.7 5773.53,-21.09"/>
<polygon fill="black" stroke="black" points="5773.77,-17.6 5763.62,-20.63 5773.44,-24.59 5773.77,-17.6"/>
<text text-anchor="middle" x="6259.48" y="-57.8" font-family="Times,serif" font-size="14.00">[1670019961&#45;1670019961]</text>
</g>
<!-- /tmp/systemd&#45;private&#45;0ce62831ed334b57820cd2c9f839ffb2&#45;fprintd.service&#45;ZJFHq7/tmp -->
<g id="node17" class="node">
<title>/tmp/systemd&#45;private&#45;0ce62831ed334b57820cd2c9f839ffb2&#45;fprintd.service&#45;ZJFHq7/tmp</title>
<ellipse fill="none" stroke="black" cx="6726.98" cy="-105" rx="324.94" ry="18"/>
<text text-anchor="middle" x="6726.98" y="-101.3" font-family="Times,serif" font-size="14.00">/tmp/systemd&#45;private&#45;0ce62831ed334b57820cd2c9f839ffb2&#45;fprintd.service&#45;ZJFHq7/tmp</text>
</g>
<!-- /tmp/systemd&#45;private&#45;0ce62831ed334b57820cd2c9f839ffb2&#45;fprintd.service&#45;ZJFHq7/tmp&#45;&gt;systemd -->
<g id="edge8" class="edge">
<title>/tmp/systemd&#45;private&#45;0ce62831ed334b57820cd2c9f839ffb2&#45;fprintd.service&#45;ZJFHq7/tmp&#45;&gt;systemd</title>
<path fill="none" stroke="black" d="M6616.13,-87.62C6538.42,-76.66 6432.05,-62.71 6337.98,-54 6129.03,-34.66 5879.14,-24.42 5773.33,-20.68"/>
<polygon fill="black" stroke="black" points="5773.68,-17.19 5763.57,-20.34 5773.44,-24.19 5773.68,-17.19"/>
<text text-anchor="middle" x="6541.48" y="-57.8" font-family="Times,serif" font-size="14.00">[1670019958&#45;1670019958]</text>
</g>
<!-- /proc/252/cgroup -->
<g id="node18" class="node">
<title>/proc/252/cgroup</title>
<ellipse fill="none" stroke="black" cx="7140.98" cy="-105" rx="71.49" ry="18"/>
<text text-anchor="middle" x="7140.98" y="-101.3" font-family="Times,serif" font-size="14.00">/proc/252/cgroup</text>
</g>
<!-- /proc/252/cgroup&#45;&gt;systemd -->
<g id="edge15" class="edge">
<title>/proc/252/cgroup&#45;&gt;systemd</title>
<path fill="none" stroke="black" d="M7089.95,-92.09C7080.37,-90.15 7070.4,-88.35 7060.98,-87 6866.41,-59.18 6816.21,-65.16 6619.98,-54 6298.35,-35.7 5911.36,-24.15 5773.68,-20.37"/>
<polygon fill="black" stroke="black" points="5773.89,-16.87 5763.8,-20.1 5773.7,-23.87 5773.89,-16.87"/>
<text text-anchor="middle" x="6975.48" y="-57.8" font-family="Times,serif" font-size="14.00">[1670020021&#45;1670020021]</text>
</g>
<!-- /sys/fs/cgroup/user.slice/user&#45;1000.slice/user@1000.service/background.slice/tracker&#45;extract&#45;3.service/cgroup.procs -->
<g id="node19" class="node">
<title>/sys/fs/cgroup/user.slice/user&#45;1000.slice/user@1000.service/background.slice/tracker&#45;extract&#45;3.service/cgroup.procs</title>
<ellipse fill="none" stroke="black" cx="7650.98" cy="-105" rx="420.53" ry="18"/>
<text text-anchor="middle" x="7650.98" y="-101.3" font-family="Times,serif" font-size="14.00">/sys/fs/cgroup/user.slice/user&#45;1000.slice/user@1000.service/background.slice/tracker&#45;extract&#45;3.service/cgroup.procs</text>
</g>
<!-- /sys/fs/cgroup/user.slice/user&#45;1000.slice/user@1000.service/background.slice/tracker&#45;extract&#45;3.service/cgroup.procs&#45;&gt;systemd -->
<g id="edge25" class="edge">
<title>/sys/fs/cgroup/user.slice/user&#45;1000.slice/user@1000.service/background.slice/tracker&#45;extract&#45;3.service/cgroup.procs&#45;&gt;systemd</title>
<path fill="none" stroke="black" d="M7489.31,-87.94C7369.3,-76.63 7201.58,-62.11 7053.98,-54 6555.86,-26.62 5951.73,-20.53 5773.69,-19.29"/>
<polygon fill="black" stroke="black" points="5773.87,-15.79 5763.85,-19.23 5773.83,-22.79 5773.87,-15.79"/>
<text text-anchor="middle" x="7341.48" y="-57.8" font-family="Times,serif" font-size="14.00">[1670019964&#45;1670019964]</text>
</g>
<!-- /var/tmp/systemd&#45;private&#45;0ce62831ed334b57820cd2c9f839ffb2&#45;fprintd.service&#45;xnDdAk/tmp -->
<g id="node20" class="node">
<title>/var/tmp/systemd&#45;private&#45;0ce62831ed334b57820cd2c9f839ffb2&#45;fprintd.service&#45;xnDdAk/tmp</title>
<ellipse fill="none" stroke="black" cx="8429.98" cy="-105" rx="340.64" ry="18"/>
<text text-anchor="middle" x="8429.98" y="-101.3" font-family="Times,serif" font-size="14.00">/var/tmp/systemd&#45;private&#45;0ce62831ed334b57820cd2c9f839ffb2&#45;fprintd.service&#45;xnDdAk/tmp</text>
</g>
<!-- /var/tmp/systemd&#45;private&#45;0ce62831ed334b57820cd2c9f839ffb2&#45;fprintd.service&#45;xnDdAk/tmp&#45;&gt;systemd -->
<g id="edge3" class="edge">
<title>/var/tmp/systemd&#45;private&#45;0ce62831ed334b57820cd2c9f839ffb2&#45;fprintd.service&#45;xnDdAk/tmp&#45;&gt;systemd</title>
<path fill="none" stroke="black" d="M8205.92,-91.05C8001.3,-79.67 7690.4,-63.48 7419.98,-54 6770.68,-31.24 5981.15,-21.73 5773.83,-19.52"/>
<polygon fill="black" stroke="black" points="5773.97,-16.02 5763.93,-19.42 5773.89,-23.02 5773.97,-16.02"/>
<text text-anchor="middle" x="7827.48" y="-57.8" font-family="Times,serif" font-size="14.00">[1670019958&#45;1670019958]</text>
</g>
<!-- /sys/fs/cgroup/user.slice/user&#45;1000.slice/user@1000.service/background.slice/tracker&#45;extract&#45;3.service/memory.events -->
<g id="node21" class="node">
<title>/sys/fs/cgroup/user.slice/user&#45;1000.slice/user@1000.service/background.slice/tracker&#45;extract&#45;3.service/memory.events</title>
<ellipse fill="none" stroke="black" cx="9217.98" cy="-105" rx="428.92" ry="18"/>
<text text-anchor="middle" x="9217.98" y="-101.3" font-family="Times,serif" font-size="14.00">/sys/fs/cgroup/user.slice/user&#45;1000.slice/user@1000.service/background.slice/tracker&#45;extract&#45;3.service/memory.events</text>
</g>
<!-- /sys/fs/cgroup/user.slice/user&#45;1000.slice/user@1000.service/background.slice/tracker&#45;extract&#45;3.service/memory.events&#45;&gt;systemd -->
<g id="edge22" class="edge">
<title>/sys/fs/cgroup/user.slice/user&#45;1000.slice/user@1000.service/background.slice/tracker&#45;extract&#45;3.service/memory.events&#45;&gt;systemd</title>
<path fill="none" stroke="black" d="M8911.37,-92.06C8867.28,-90.35 8822.47,-88.63 8779.98,-87 8391.54,-72.13 8294.56,-64.45 7905.98,-54 7053.74,-31.08 6014.01,-21.42 5773.36,-19.41"/>
<polygon fill="black" stroke="black" points="5773.73,-15.91 5763.7,-19.33 5773.67,-22.91 5773.73,-15.91"/>
<text text-anchor="middle" x="8417.48" y="-57.8" font-family="Times,serif" font-size="14.00">[1670019964&#45;1670019964]</text>
</g>
<!-- /proc/4293/cgroup -->
<g id="node22" class="node">
<title>/proc/4293/cgroup</title>
<ellipse fill="none" stroke="black" cx="9739.98" cy="-105" rx="75.29" ry="18"/>
<text text-anchor="middle" x="9739.98" y="-101.3" font-family="Times,serif" font-size="14.00">/proc/4293/cgroup</text>
</g>
<!-- /proc/4293/cgroup&#45;&gt;systemd -->
<g id="edge1" class="edge">
<title>/proc/4293/cgroup&#45;&gt;systemd</title>
<path fill="none" stroke="black" d="M9686.88,-91.82C9676.67,-89.89 9666.03,-88.15 9655.98,-87 9143.57,-28.3 9011.64,-64.59 8495.98,-54 7396.42,-31.42 6051.38,-21.28 5773.61,-19.35"/>
<polygon fill="black" stroke="black" points="5773.84,-15.85 5763.82,-19.28 5773.79,-22.85 5773.84,-15.85"/>
<text text-anchor="middle" x="9535.48" y="-57.8" font-family="Times,serif" font-size="14.00">[1670020020&#45;1670020020]</text>
</g>
<!-- /proc/422/cgroup -->
<g id="node23" class="node">
<title>/proc/422/cgroup</title>
<ellipse fill="none" stroke="black" cx="9904.98" cy="-105" rx="71.49" ry="18"/>
<text text-anchor="middle" x="9904.98" y="-101.3" font-family="Times,serif" font-size="14.00">/proc/422/cgroup</text>
</g>
<!-- /proc/422/cgroup&#45;&gt;systemd -->
<g id="edge2" class="edge">
<title>/proc/422/cgroup&#45;&gt;systemd</title>
<path fill="none" stroke="black" d="M9853.03,-92.23C9795.09,-79.78 9698.4,-60.97 9613.98,-54 9214.19,-20.97 6207.3,-19.1 5773.95,-19"/>
<polygon fill="black" stroke="black" points="5773.97,-15.5 5763.97,-19 5773.97,-22.5 5773.97,-15.5"/>
<text text-anchor="middle" x="9800.48" y="-57.8" font-family="Times,serif" font-size="14.00">[1670019984&#45;1670019984]</text>
</g>
<!-- /proc/537/cgroup -->
<g id="node24" class="node">
<title>/proc/537/cgroup</title>
<ellipse fill="none" stroke="black" cx="10065.98" cy="-105" rx="71.49" ry="18"/>
<text text-anchor="middle" x="10065.98" y="-101.3" font-family="Times,serif" font-size="14.00">/proc/537/cgroup</text>
</g>
<!-- /proc/537/cgroup&#45;&gt;systemd -->
<g id="edge13" class="edge">
<title>/proc/537/cgroup&#45;&gt;systemd</title>
<path fill="none" stroke="black" d="M10025,-89.83C9987.52,-77.64 9930.26,-60.96 9878.98,-54 9665.6,-25.05 6236.21,-19.66 5773.49,-19.06"/>
<polygon fill="black" stroke="black" points="5773.71,-15.56 5763.7,-19.05 5773.7,-22.56 5773.71,-15.56"/>
<text text-anchor="middle" x="10025.48" y="-57.8" font-family="Times,serif" font-size="14.00">[1670020021&#45;1670020021]</text>
</g>
<!-- /tmp/systemd&#45;private&#45;0ce62831ed334b57820cd2c9f839ffb2&#45;fprintd.service&#45;ZJFHq7 -->
<g id="node25" class="node">
<title>/tmp/systemd&#45;private&#45;0ce62831ed334b57820cd2c9f839ffb2&#45;fprintd.service&#45;ZJFHq7</title>
<ellipse fill="none" stroke="black" cx="10463.98" cy="-105" rx="308.95" ry="18"/>
<text text-anchor="middle" x="10463.98" y="-101.3" font-family="Times,serif" font-size="14.00">/tmp/systemd&#45;private&#45;0ce62831ed334b57820cd2c9f839ffb2&#45;fprintd.service&#45;ZJFHq7</text>
</g>
<!-- /tmp/systemd&#45;private&#45;0ce62831ed334b57820cd2c9f839ffb2&#45;fprintd.service&#45;ZJFHq7&#45;&gt;systemd -->
<g id="edge4" class="edge">
<title>/tmp/systemd&#45;private&#45;0ce62831ed334b57820cd2c9f839ffb2&#45;fprintd.service&#45;ZJFHq7&#45;&gt;systemd</title>
<path fill="none" stroke="black" d="M10369.22,-87.41C10296.83,-75.57 10194.45,-60.62 10103.98,-54 9651.32,-20.9 6235.01,-19.1 5773.51,-19"/>
<polygon fill="black" stroke="black" points="5773.75,-15.5 5763.75,-19 5773.75,-22.5 5773.75,-15.5"/>
<text text-anchor="middle" x="10317.48" y="-57.8" font-family="Times,serif" font-size="14.00">[1670019958&#45;1670019958]</text>
</g>
<!-- /proc/17250/comm -->
<g id="node26" class="node">
<title>/proc/17250/comm</title>
<ellipse fill="none" stroke="black" cx="10868.98" cy="-105" rx="78.79" ry="18"/>
<text text-anchor="middle" x="10868.98" y="-101.3" font-family="Times,serif" font-size="14.00">/proc/17250/comm</text>
</g>
<!-- /proc/17250/comm&#45;&gt;systemd -->
<g id="edge12" class="edge">
<title>/proc/17250/comm&#45;&gt;systemd</title>
<path fill="none" stroke="black" d="M10812.5,-92.05C10802.37,-90.17 10791.89,-88.39 10781.98,-87 10611.46,-63.12 10567.98,-61.98 10395.98,-54 9911.27,-31.5 6252.14,-20.49 5773.55,-19.14"/>
<polygon fill="black" stroke="black" points="5773.73,-15.64 5763.72,-19.11 5773.71,-22.64 5773.73,-15.64"/>
<text text-anchor="middle" x="10709.48" y="-57.8" font-family="Times,serif" font-size="14.00">[1670019958&#45;1670019958]</text>
</g>
</g>
</svg>
